<svg width="164" height="44" viewBox="0 0 164 44" fill="none" xmlns="http://www.w3.org/2000/svg">
<g id="Logo">
<path id="Vector" d="M51.541 7.15699C50.4159 8.50809 48.6157 9.57374 46.8155 9.4215C46.5904 7.59467 47.4718 5.65366 48.5032 4.4548C49.6283 3.06565 51.5973 2.07612 53.1912 2C53.3787 3.90295 52.6474 5.76784 51.541 7.15699ZM53.1724 9.78306C50.5659 9.63083 48.3344 11.2864 47.0968 11.2864C45.8404 11.2864 43.9464 9.85918 41.8837 9.89724C39.2021 9.9353 36.7081 11.4767 35.3392 13.9315C32.5263 18.8411 34.6078 26.1104 37.3269 30.1066C38.6583 32.0856 40.2522 34.255 42.3525 34.1789C44.3402 34.1028 45.1278 32.8658 47.5281 32.8658C49.9471 32.8658 50.6409 34.1789 52.7411 34.1408C54.9164 34.1028 56.2853 32.1617 57.6167 30.1827C59.1356 27.9372 59.7545 25.7488 59.792 25.6346C59.7545 25.5966 55.5915 23.9791 55.554 19.1075C55.5165 15.0352 58.8356 13.0942 58.9856 12.98C57.1104 10.1637 54.1851 9.85918 53.1724 9.78306ZM68.2304 4.26451V33.9315H72.7684V23.7888H79.0504C84.7886 23.7888 88.8203 19.7926 88.8203 14.0076C88.8203 8.22264 84.8636 4.26451 79.2004 4.26451H68.2304ZM72.7684 8.14653H78.0003C81.9382 8.14653 84.1885 10.2778 84.1885 14.0266C84.1885 17.7755 81.9382 19.9258 77.9815 19.9258H72.7684V8.14653ZM97.1087 34.1598C99.9591 34.1598 102.603 32.6946 103.803 30.373H103.897V33.9315H108.097V19.1646C108.097 14.883 104.722 12.1237 99.5278 12.1237C94.7085 12.1237 91.1456 14.921 91.0143 18.765H95.1023C95.4398 16.9382 97.1087 15.7393 99.3965 15.7393C102.172 15.7393 103.728 17.0523 103.728 19.4691V21.1056L98.0651 21.4481C92.7957 21.7716 89.9454 23.96 89.9454 27.7659C89.9454 31.6099 92.8895 34.1598 97.1087 34.1598ZM98.3276 30.6394C95.9086 30.6394 94.3709 29.4596 94.3709 27.6518C94.3709 25.7869 95.8523 24.7022 98.6839 24.5309L103.728 24.2074V25.882C103.728 28.6603 101.403 30.6394 98.3276 30.6394ZM113.704 42C118.13 42 120.211 40.2873 122.03 35.0923L130 12.4091H125.387L120.043 29.9353H119.949L114.604 12.4091H109.86L117.549 34.0076L117.136 35.3206C116.442 37.5471 115.317 38.4034 113.311 38.4034C112.954 38.4034 112.26 38.3654 111.979 38.3273V41.8858C112.242 41.9619 113.367 42 113.704 42Z" fill="#6C7278"/>
</g>
</svg>
