<svg width="164" height="44" viewBox="0 0 164 44" fill="none" xmlns="http://www.w3.org/2000/svg">
<g id="Logo">
<path id="Vector" d="M75.4668 37.5381H67.5281L72.4935 6.56128H80.4318L75.4668 37.5381Z" fill="#6C7278"/>
<path id="Vector_2" d="M104.245 7.31881C102.679 6.69203 100.195 6 97.1245 6C89.2848 6 83.7641 10.2179 83.7302 16.2482C83.6651 20.6974 87.6829 23.1686 90.6878 24.6521C93.7592 26.168 94.8033 27.1574 94.8033 28.5086C94.772 30.5838 92.3214 31.5404 90.0358 31.5404C86.8663 31.5404 85.168 31.0472 82.5872 29.8927L81.5419 29.3978L80.4309 36.3514C82.2929 37.2072 85.7233 37.9667 89.2848 38C97.6146 38 103.038 33.8474 103.102 27.4211C103.134 23.8948 101.012 21.1928 96.4382 18.9848C93.6615 17.5675 91.9611 16.6118 91.9611 15.1616C91.9937 13.8432 93.3993 12.4929 96.5337 12.4929C99.1145 12.4267 101.011 13.0526 102.447 13.6789L103.165 14.0079L104.245 7.31881Z" fill="#6C7278"/>
<path id="Vector_3" d="M114.796 26.5641C115.45 24.7845 117.966 17.897 117.966 17.897C117.933 17.9632 118.618 16.0846 119.01 14.9314L119.565 17.6005C119.565 17.6005 121.068 25.0153 121.395 26.5641C120.154 26.5641 116.364 26.5641 114.796 26.5641ZM124.595 6.56128H118.455C116.561 6.56128 115.123 7.12104 114.306 9.13144L102.514 37.5376H110.844C110.844 37.5376 112.215 33.7144 112.51 32.8909C113.423 32.8909 121.527 32.8909 122.702 32.8909C122.93 33.9785 123.65 37.5376 123.65 37.5376H131L124.595 6.56128Z" fill="#6C7278"/>
<path id="Vector_4" d="M60.8976 6.56128L53.1229 27.6845L52.2734 23.4004C50.836 18.4572 46.3281 13.0865 41.2976 10.4161L48.4188 37.5052H56.8138L69.2921 6.56128H60.8976Z" fill="#6C7278"/>
<path id="Vector_5" d="M45.9033 6.56128H33.1307L33 7.18717C42.9634 9.75777 49.562 15.9541 52.2731 23.4018L49.4965 9.16516C49.0393 7.18674 47.6345 6.62654 45.9033 6.56128Z" fill="#6C7278"/>
</g>
</svg>
