<svg width="164" height="44" viewBox="0 0 164 44" fill="none" xmlns="http://www.w3.org/2000/svg">
<g id="Logo">
<path id="Vector" d="M31.9601 5.00122H21.6153C20.9072 5.00122 20.3053 5.49473 20.1948 6.16535L16.0109 31.6133C15.9276 32.1153 16.3331 32.5681 16.864 32.5681H21.8028C22.5107 32.5681 23.1126 32.0748 23.2231 31.4029L24.3515 24.5393C24.4605 23.8673 25.0639 23.3739 25.7704 23.3739H29.0452C35.8596 23.3739 39.7924 20.2104 40.8196 13.9417C41.2824 11.199 40.8392 9.0442 39.5005 7.53506C38.0302 5.87773 35.4225 5.00122 31.9601 5.00122ZM33.1536 14.2958C32.5879 17.8568 29.7516 17.8568 27.0092 17.8568H25.4482L26.5433 11.2064C26.6084 10.8044 26.9714 10.5084 27.395 10.5084H28.1104C29.9785 10.5084 31.7408 10.5084 32.6513 11.5298C33.1944 12.1394 33.3608 13.0448 33.1536 14.2958Z" fill="#6C7278"/>
<path id="Vector_2" d="M62.883 14.1815H57.9294C57.5074 14.1815 57.1429 14.4776 57.0775 14.8796L56.8585 16.2088L56.512 15.7269C55.4396 14.2337 53.0479 13.7346 50.661 13.7346C45.1869 13.7346 40.5113 17.7121 39.6008 23.2916C39.1274 26.0748 39.8005 28.7361 41.4462 30.592C42.9558 32.2985 45.1158 33.0095 47.6859 33.0095C52.0967 33.0095 54.5426 30.2889 54.5426 30.2889L54.3217 31.6094C54.2384 32.1143 54.6439 32.5671 55.1719 32.5671H59.6339C60.3434 32.5671 60.9424 32.0737 61.0544 31.4019L63.7317 15.1363C63.8166 14.6357 63.4126 14.1815 62.883 14.1815ZM55.978 23.4309C55.5002 26.1458 53.2537 27.9686 50.389 27.9686C48.9505 27.9686 47.8008 27.5259 47.0625 26.6872C46.3305 25.8542 46.0521 24.6687 46.2851 23.3481C46.7313 20.6563 49.0155 18.7744 51.8363 18.7744C53.2433 18.7744 54.3867 19.2227 55.1401 20.0686C55.895 20.9233 56.1942 22.1161 55.978 23.4309Z" fill="#6C7278"/>
<path id="Vector_3" d="M89.2657 14.1815H84.2878C83.8128 14.1815 83.3665 14.4079 83.0973 14.7867L76.2314 24.4888L73.3212 15.1654C73.1382 14.582 72.5771 14.1815 71.9417 14.1815H67.0499C66.4553 14.1815 66.0425 14.7387 66.2316 15.2756L71.7148 30.7125L66.5598 37.6939C66.1542 38.2437 66.5626 39 67.2633 39H72.2353C72.7071 39 73.1489 38.7793 73.4165 38.4078L89.9736 15.4803C90.37 14.9317 89.9632 14.1815 89.2657 14.1815Z" fill="#6C7278"/>
<path id="Vector_4" d="M105.748 5.00122H95.4013C94.695 5.00122 94.0928 5.49473 93.9823 6.16535L89.7984 31.6133C89.7154 32.1153 90.1206 32.5681 90.6486 32.5681H95.958C96.451 32.5681 96.8732 32.2229 96.9502 31.7527L98.1375 24.5393C98.2464 23.8673 98.8502 23.3739 99.5565 23.3739H102.83C109.646 23.3739 113.577 20.2104 114.606 13.9417C115.07 11.199 114.624 9.0442 113.285 7.53506C111.816 5.87773 109.21 5.00122 105.748 5.00122ZM106.941 14.2958C106.377 17.8568 103.541 17.8568 100.797 17.8568H99.2374L100.334 11.2064C100.399 10.8044 100.759 10.5084 101.184 10.5084H101.899C103.766 10.5084 105.53 10.5084 106.44 11.5298C106.983 12.1394 107.148 13.0448 106.941 14.2958Z" fill="#6C7278"/>
<path id="Vector_5" d="M136.669 14.1815H131.718C131.293 14.1815 130.931 14.4776 130.868 14.8796L130.649 16.2088L130.301 15.7269C129.229 14.2337 126.838 13.7346 124.452 13.7346C118.977 13.7346 114.303 17.7121 113.393 23.2916C112.921 26.0748 113.591 28.7361 115.237 30.592C116.749 32.2985 118.906 33.0095 121.476 33.0095C125.887 33.0095 128.333 30.2889 128.333 30.2889L128.112 31.6094C128.029 32.1143 128.434 32.5671 128.965 32.5671H133.426C134.132 32.5671 134.734 32.0737 134.845 31.4019L137.524 15.1363C137.605 14.6357 137.2 14.1815 136.669 14.1815ZM129.764 23.4309C129.289 26.1458 127.039 27.9686 124.175 27.9686C122.739 27.9686 121.587 27.5259 120.848 26.6872C120.116 25.8542 119.841 24.6687 120.071 23.3481C120.52 20.6563 122.801 18.7744 125.622 18.7744C127.029 18.7744 128.173 19.2227 128.926 20.0686C129.684 20.9233 129.983 22.1161 129.764 23.4309Z" fill="#6C7278"/>
<path id="Vector_6" d="M142.509 5.69939L138.263 31.6133C138.18 32.1153 138.585 32.5681 139.113 32.5681H143.382C144.091 32.5681 144.693 32.0748 144.802 31.4029L148.989 5.95643C149.072 5.45415 148.667 5 148.139 5H143.359C142.937 5.00121 142.574 5.29762 142.509 5.69939Z" fill="#6C7278"/>
</g>
</svg>
