<svg width="164" height="44" viewBox="0 0 164 44" fill="none" xmlns="http://www.w3.org/2000/svg">
<g id="Logo">
<path id="Vector" d="M49.3473 2.00107C46.3169 2.00127 43.3461 2.8585 40.7668 4.47702C38.1874 6.09554 36.1011 8.41165 34.7407 11.1667C33.5961 13.4839 33 16.0414 33 18.6348C33 21.2281 33.5961 23.7856 34.7407 26.1028C36.1011 28.8579 38.1874 31.174 40.7668 32.7925C43.3461 34.411 46.3169 35.2683 49.3473 35.2685C53.7611 35.2685 57.4736 33.7912 60.1837 31.2522C63.2692 28.3565 65.0512 24.0758 65.0512 19.0146C65.0503 17.8807 64.9537 16.749 64.7625 15.632H49.3515V22.0362H58.179C57.9993 23.0592 57.6179 24.0347 57.0579 24.9038C56.4978 25.7729 55.7707 26.5176 54.9202 27.0933C53.4517 28.1047 51.5625 28.6838 49.3515 28.6838C45.0862 28.6838 41.4686 25.7587 40.1733 21.818C39.4893 19.7529 39.4893 17.5166 40.1733 15.4516C41.4686 11.5066 45.0862 8.58572 49.3515 8.58572C51.6821 8.54693 53.9342 9.44234 55.6215 11.0786L60.291 6.33628C57.3323 3.50703 53.4117 1.95333 49.3515 2.00107H49.3473ZM76.164 4.30926V33.2666H79.8187V21.5368H85.8619C88.3492 21.5368 90.4406 20.7142 92.1401 19.0691C92.9861 18.2976 93.6582 17.3491 94.1103 16.2886C94.5624 15.2281 94.7839 14.0808 94.7595 12.9251C94.7767 11.7755 94.5518 10.6353 94.1 9.5814C93.6482 8.52747 92.98 7.58411 92.1401 6.8147C91.3084 5.99529 90.3254 5.35162 89.2478 4.92087C88.1702 4.49012 87.0194 4.28082 85.8619 4.30507L76.164 4.30926ZM86.1754 7.87648C86.8132 7.8878 87.4423 8.0292 88.0254 8.29232C88.6085 8.55543 89.1338 8.93491 89.5702 9.40828C90.035 9.8682 90.4044 10.4182 90.6567 11.0259C90.9089 11.6335 91.0389 12.2865 91.0389 12.9461C91.0389 13.6057 90.9089 14.2587 90.6567 14.8663C90.4044 15.474 90.035 16.024 89.5702 16.4839C89.103 16.9762 88.5399 17.3637 87.9169 17.6217C87.2939 17.8797 86.6249 18.0024 85.9526 17.9822H79.8187V7.87648H85.9526C86.0268 7.87471 86.1011 7.87471 86.1754 7.87648ZM103.187 12.8076C99.7136 12.8076 97.0942 14.1002 95.3205 16.6896L98.5421 18.7502C99.7301 17.0001 101.347 16.123 103.389 16.123C104.692 16.1067 105.953 16.5908 106.92 17.4786C107.396 17.8792 107.779 18.3827 108.04 18.9526C108.301 19.5224 108.434 20.1443 108.43 20.773V21.6207C107.027 20.8108 105.237 20.4079 103.067 20.4079C100.522 20.4079 98.4885 21.0164 96.9664 22.2293C95.4401 23.4379 94.6811 25.0704 94.6811 27.1184C94.6645 28.0401 94.8503 28.9538 95.225 29.7931C95.5997 30.6324 96.1537 31.3761 96.8467 31.9698C98.2905 33.2624 100.085 33.9129 102.23 33.9129C104.746 33.9129 106.759 32.7798 108.273 30.5136H108.43V33.2624H111.928V21.0542C111.928 18.4942 111.144 16.4797 109.585 15.0109C108.017 13.542 105.889 12.8076 103.187 12.8076ZM112.522 13.4539L120.549 32.0118L116.02 42H119.794L132 13.4497H128.019L122.376 27.6808H122.294L116.494 13.4539H112.522ZM103.669 23.3917C105.707 23.3917 107.299 23.8534 108.438 24.7767C108.438 26.3378 107.832 27.6976 106.623 28.8601C105.532 29.9702 104.053 30.595 102.51 30.5975C101.479 30.6175 100.474 30.2734 99.6641 29.6239C99.2874 29.3466 98.9812 28.9819 98.771 28.56C98.5608 28.1381 98.4526 27.6712 98.4555 27.1982C98.4555 26.1196 98.9505 25.2257 99.9529 24.4829C100.943 23.7569 102.18 23.3917 103.665 23.3917H103.669Z" fill="#6C7278"/>
</g>
</svg>
