<svg width="164" height="44" viewBox="0 0 164 44" fill="none" xmlns="http://www.w3.org/2000/svg">
<g id="Logo">
<path id="Vector" fill-rule="evenodd" clip-rule="evenodd" d="M130 22.665C130 15.829 126.66 10.4333 120.272 10.4333C113.86 10.4333 109.979 15.8278 109.979 22.6104C109.979 30.6488 114.559 34.7074 121.133 34.7074C124.34 34.7074 126.765 33.9872 128.597 32.972V27.6309C126.765 28.5393 124.664 29.0992 121.996 29.0992C119.382 29.0992 117.065 28.1908 116.768 25.0405H129.943C129.943 24.692 129.996 23.3051 129.996 22.6639L130 22.665ZM116.7 20.1292C116.7 17.1114 118.559 15.8568 120.258 15.8568C121.901 15.8568 123.653 17.1114 123.653 20.1292H116.7ZM99.5916 10.4356C96.9509 10.4356 95.2549 11.6634 94.3102 12.5184L93.9586 10.8631H88.0197V42L94.7556 40.5852L94.7826 33.0277C95.7531 33.7224 97.1806 34.7097 99.5529 34.7097C104.376 34.7097 108.768 30.8764 108.768 22.399C108.741 14.6546 104.295 10.4344 99.5787 10.4344L99.5916 10.4356ZM97.9741 28.8355C96.3848 28.8355 95.4425 28.2744 94.7943 27.581L94.7673 17.6724C95.4682 16.8976 96.4375 16.3645 97.9741 16.3645C100.426 16.3645 102.123 19.0884 102.123 22.586C102.123 26.1638 100.453 28.8355 97.9741 28.8355ZM78.7521 8.86046L85.515 7.42007V2L78.7521 3.41484V8.86046ZM78.7521 10.8898H85.515V34.2556H78.7521V10.8898ZM71.5028 12.8645L71.0714 10.8898H65.2509V34.2579H71.9868V18.4205C73.5762 16.3645 76.2708 16.7385 77.1065 17.0324V10.891C76.2438 10.5704 73.0921 9.98258 71.5016 12.8657L71.5028 12.8645ZM58.0309 5.08175L51.4567 6.47219L51.4298 27.8621C51.4298 31.8139 54.4209 34.7248 58.4083 34.7248C60.6177 34.7248 62.234 34.3241 63.1236 33.842V28.4208C62.2609 28.7693 58.0039 29.9959 58.0039 26.0441V16.5782H63.1236V10.8898H58.0016L58.0309 5.08175ZM39.8168 17.6597C39.8168 16.6177 40.6795 16.2193 42.107 16.2193C44.4373 16.2684 46.7243 16.853 48.7879 17.9268V11.6646C46.5516 10.7818 44.3422 10.4368 42.107 10.4368C36.637 10.4368 33 13.2676 33 17.9942C33 25.3646 43.2393 24.1891 43.2393 27.3684C43.2393 28.5962 42.161 28.997 40.6525 28.997C38.4162 28.997 35.5598 28.0886 33.2965 26.8596V33.2136C35.8024 34.2823 38.3365 34.7237 40.6525 34.7237C46.2574 34.7237 50.1112 31.973 50.1112 27.193C50.0842 19.236 39.818 20.6508 39.818 17.6597H39.8168Z" fill="#6C7278"/>
</g>
</svg>
