<svg width="164" height="44" viewBox="0 0 164 44" fill="none" xmlns="http://www.w3.org/2000/svg">
<g id="Logo">
<path id="Vector" d="M139 11.4671H133.07L129.638 25.9219L129.156 27.9055C128.825 27.9957 128.494 28.0856 128.163 28.1461C127.561 28.2661 126.929 28.3262 126.267 28.3262C125.514 28.3262 124.912 28.2062 124.461 27.9957C124.039 27.7853 123.708 27.4851 123.527 27.064C123.346 26.6732 123.286 26.1925 123.316 25.6517C123.346 25.1109 123.467 24.5095 123.617 23.9091L125.424 16.3956L126.597 11.4072H120.547L117.807 22.9468C117.476 24.3288 117.296 25.6515 117.235 26.9138C117.175 28.1757 117.386 29.2578 117.807 30.2495C118.229 31.2111 118.981 31.9623 120.005 32.5331C121.028 33.1042 122.504 33.3742 124.37 33.3742C125.665 33.3742 126.808 33.2547 127.772 33.0439C127.802 33.0439 127.862 33.0141 127.892 33.0141C127.621 34.2159 127.079 35.1773 126.236 35.9291C125.363 36.6805 124.099 37.071 122.413 37.071C121.69 37.071 121.028 37.041 120.426 36.9513L119.252 41.8498C120.035 41.9399 120.908 42 121.871 42C123.677 42 125.243 41.7897 126.597 41.3986C127.952 40.9778 129.096 40.3771 130.089 39.5354C131.053 38.6939 131.865 37.6421 132.528 36.4103C133.19 35.1482 133.701 33.6751 134.093 31.9322L138.187 14.7427L139 11.4671ZM114.165 23.8181C113.804 25.3208 113.683 26.8533 113.834 28.356C113.984 29.8885 114.586 32.2024 115.159 33.3744H109.439C108.747 32.2029 108.777 31.6318 108.627 31.2712C107.874 31.8724 107.061 32.3831 106.158 32.7739C105.255 33.1648 104.261 33.3751 103.118 33.3751C101.793 33.3751 100.649 33.1345 99.7161 32.6838C98.7829 32.2334 98.0001 31.6022 97.398 30.8206C96.7956 30.0389 96.3747 29.1374 96.1032 28.0856C95.8323 27.0338 95.7119 25.9219 95.7119 24.7201C95.7119 22.8864 96.0432 21.1739 96.6757 19.5512C97.3376 17.9283 98.2407 16.5156 99.385 15.3138C100.529 14.1117 103.328 11.4373 107.904 11.4373H117.086L114.165 23.8181ZM109.981 16.4555C107.212 16.4555 106.699 16.4555 105.556 17.0268C104.743 17.4474 104.081 18.0786 103.509 18.7997C102.937 19.5207 102.455 20.3622 102.124 21.3241C101.793 22.2858 101.612 23.2773 101.612 24.2992C101.612 25.5613 101.823 26.5829 102.245 27.3342C102.666 28.0856 103.449 28.4461 104.593 28.4461C105.195 28.4461 105.766 28.3262 106.248 28.0856C106.73 27.845 107.272 27.4549 107.814 26.8838C107.874 26.2228 107.964 25.5313 108.085 24.8107C108.205 24.0889 108.355 23.3979 108.476 22.7968L109.981 16.4555ZM94.0865 20.1519C94.0865 22.1053 93.7552 23.8781 93.123 25.501C92.491 27.1237 91.5879 28.5062 90.4437 29.6784C89.2996 30.8506 87.9453 31.752 86.3498 32.4134C84.7545 33.0739 83.0385 33.4047 81.1721 33.4047C80.269 33.4047 79.3659 33.3145 78.4325 33.1643L76.6267 40.4067H70.696L77.5896 11.4967H85.5066C87.0124 11.4967 88.3063 11.7373 89.3598 12.1875C90.4435 12.6382 91.3165 13.2696 92.0391 14.0512C92.7315 14.8326 93.2429 15.764 93.574 16.8158C93.936 17.8378 94.0865 18.9499 94.0865 20.1519ZM79.5465 28.356C79.9977 28.4759 80.57 28.5062 81.2323 28.5062C82.2859 28.5062 83.2193 28.3257 84.0919 27.9349C84.9346 27.5443 85.6874 27.0033 86.2894 26.3125C86.8917 25.6212 87.343 24.7797 87.7043 23.8181C88.0354 22.8559 88.2162 21.7743 88.2162 20.6026C88.2162 19.4602 87.9752 18.4687 87.4636 17.6871C86.9517 16.8761 86.0792 16.4552 84.8149 16.4552H82.4665L79.5465 28.356ZM67.084 28.356C66.3312 28.356 65.7297 28.2358 65.2778 28.0255C64.8562 27.8152 64.5249 27.5147 64.3446 27.0936C64.1638 26.7031 64.1036 26.2223 64.1339 25.6813C64.1638 25.1403 64.2842 24.5391 64.4347 23.9382L66.2406 16.4254H72.9837L74.2181 11.4368H67.4447L69.0099 5.12581L62.6882 6.11706L58.6845 23.0064C58.3532 24.3885 58.1726 25.7113 58.1124 26.973C58.052 28.2351 58.2629 29.3176 58.6845 30.3089C59.1058 31.2706 59.8585 32.0217 60.882 32.5928C61.9055 33.1638 63.3806 33.434 65.247 33.434C66.5416 33.434 67.6852 33.3141 68.6488 33.1035C68.7391 33.073 68.8895 33.0432 68.9796 33.0134L70.214 27.8743C69.7924 28.0246 69.3711 28.1152 68.9796 28.1746C68.3784 28.2957 67.7459 28.356 67.084 28.356ZM52.0025 11.4671L46.7644 33.4044H52.6947L57.9025 11.4671H52.0025ZM58.5347 8.94242L59.4378 5.12581H53.5075L52.6044 8.94242H58.5347ZM38.8774 11.4967C40.1417 11.4967 41.2555 11.7373 42.1887 12.1875C43.1219 12.6382 43.8745 13.2393 44.5065 14.0209C45.1087 14.8025 45.5601 15.7041 45.8611 16.7259C46.162 17.7472 46.3125 18.8595 46.3125 20.0615C46.3125 21.8947 45.9815 23.6077 45.289 25.2604C44.5966 26.8833 43.6935 28.3257 42.5197 29.5275C41.3458 30.7295 39.9609 31.6916 38.3656 32.3827C36.77 33.0737 35.0541 33.4342 33.1879 33.4342C32.9469 33.4342 32.5256 33.4342 31.9237 33.4044C31.3215 33.4044 30.6293 33.3441 29.8767 33.2239C29.094 33.104 28.2811 32.9535 27.4382 32.7434C26.5971 32.5392 25.7798 32.2471 25 31.8719L31.8934 2.96212L38.0646 2L35.6262 12.2474C36.1679 12.0072 36.6497 11.8267 37.1916 11.7068C37.7032 11.557 38.2753 11.4967 38.8774 11.4967ZM33.6996 28.5062C34.6328 28.5062 35.5058 28.2957 36.3186 27.8152C37.1423 27.3594 37.8684 26.7468 38.4559 26.012C39.058 25.2604 39.5396 24.3889 39.8708 23.4571C40.2019 22.4954 40.3825 21.5041 40.3825 20.4824C40.3825 19.22 40.1718 18.2288 39.7502 17.5073C39.3289 16.786 38.4559 16.4555 37.312 16.4555C36.9506 16.4555 36.5594 16.4857 35.9572 16.636C35.3551 16.7559 34.8434 17.0568 34.3619 17.4772L31.773 28.386C32.5557 28.5062 32.7965 28.536 33.0074 28.536C33.1578 28.5062 33.3986 28.5062 33.6996 28.5062Z" fill="#6C7278"/>
</g>
</svg>
